<?xml version="1.0" encoding="UTF-8" standalone="no"?>
<svg width="13px" height="13px" viewBox="0 0 13 13" version="1.1" xmlns="http://www.w3.org/2000/svg" xmlns:xlink="http://www.w3.org/1999/xlink">
    <!-- Generator: Sketch 3.6.1 (26313) - http://www.bohemiancoding.com/sketch -->
    <title>send</title>
    <desc>Created with Sketch.</desc>
    <defs></defs>
    <g id="logo" stroke="none" stroke-width="1" fill="none" fill-rule="evenodd">
        <g id="Desktop-Copy-10" transform="translate(-768.000000, -513.000000)" fill="#000000">
            <path d="M781.000034,513.300893 C781.01508,513.210615 780.969941,513.10529 780.879663,513.045105 C780.789385,512.98492 780.684061,512.98492 780.593783,513.030059 L768.135417,520.071744 C768.045139,520.131929 768,520.222207 768,520.327531 C768,520.417809 768.060185,520.508087 768.150463,520.553226 L770.858804,521.907397 C770.888896,521.922443 770.934035,521.937489 770.979174,521.937489 C771.03936,521.937489 771.099545,521.922443 771.159731,521.877304 L778.848408,515.24187 L772.935198,522.855316 C772.890059,522.900455 772.875013,522.96064 772.875013,523.020826 L772.875013,525.729166 C772.875013,525.849537 772.950244,525.954861 773.055569,525.984954 C773.085661,526 773.115754,526 773.145847,526 C773.236125,526 773.311357,525.954861 773.356496,525.894676 L774.846083,523.908559 L778.983825,525.969907 C779.059057,526.015046 779.149335,526.015046 779.224566,525.969907 C779.314844,525.924768 779.359983,525.849537 779.37503,525.759259 L781.000034,513.300893 Z" id="send"></path>
        </g>
    </g>
</svg>