<?xml version="1.0" encoding="UTF-8" standalone="no"?>
<svg width="300px" height="80px" viewBox="0 0 300 80" version="1.1" xmlns="http://www.w3.org/2000/svg" xmlns:xlink="http://www.w3.org/1999/xlink">
    <!-- Generator: Sketch 3.6.1 (26313) - http://www.bohemiancoding.com/sketch -->
    <title>Combined Shape</title>
    <desc>Created with Sketch.</desc>
    <defs>
        <path d="M268.96806,31.8965937 L257.953409,20.8819426 L237.071466,41.7638853 L237.071466,54.6143115 L278.835352,54.6143115 L278.835352,41.7638853 L275.393273,38.3218068 L275.393273,31.8965937 L268.96806,31.8965937 Z M67.2304207,20.3334279 L69.6876611,0.777633304 L2.45724045,0.777633304 L0,20.3334279 L21.9775667,20.3334279 L21.9775667,78.6520542 L47.5996544,78.6520542 L47.5996544,20.3334279 L67.2304207,20.3334279 Z M138.795562,20.3295564 L141.252803,0.777633304 L75.7618629,0.777633304 L75.7618629,78.6520542 L139.789523,78.6520542 L142.246763,59.1001311 L101.383951,59.1001311 L101.383951,49.43526 L126.552594,49.43526 L129.009835,29.883337 L101.383951,29.883337 L101.383951,20.3295564 L138.795562,20.3295564 Z M214.226105,20.3334279 L216.683346,0.777633304 L149.452925,0.777633304 L146.995685,20.3334279 L168.973251,20.3334279 L168.973251,78.6520542 L194.595339,78.6520542 L194.595339,20.3334279 L214.226105,20.3334279 Z M214.961174,39.6592985 C214.961174,62.8772072 232.85246,79.7629589 257.480587,79.7629589 C282.108715,79.7629589 300,62.7661167 300,39.6592985 C300,16.6635708 282.108715,0 257.480587,0 C232.85246,0 214.961174,16.5524803 214.961174,39.6592985 Z" id="path-1"></path>
    </defs>
    <g id="logo" fill-rule="evenodd">
        <g id="Desktop-Copy-10" transform="translate(-159.000000, -355.000000)">
            <g id="logo" transform="translate(159.000000, 355.000000)">
                <g id="Combined-Shape">
                    <use xlink:href="#path-1"></use>
                </g>
            </g>
        </g>
    </g>
</svg>